{
    "asset" : {
        "generator" : "Khronos glTF Blender I/O v1.7.33",
        "version" : "2.0"
    },
    "scene" : 0,
    "scenes" : [
        {
            "name" : "Scene",
            "nodes" : [
                0
            ]
        }
    ],
    "nodes" : [
        {
            "mesh" : 0,
            "name" : "SwordMesh"
        }
    ],
    "materials" : [
        {
            "doubleSided" : true,
            "name" : "Sting",
            "pbrMetallicRoughness" : {}
        }
    ],
    "meshes" : [
        {
            "name" : "Plane",
            "primitives" : [
                {
                    "attributes" : {
                        "POSITION" : 0,
                        "NORMAL" : 1,
                        "TEXCOORD_0" : 2
                    },
                    "indices" : 3,
                    "material" : 0
                }
            ]
        }
    ],
    "accessors" : [
        {
            "bufferView" : 0,
            "componentType" : 5126,
            "count" : 1749,
            "max" : [
                6.353314399719238,
                0.8538792729377747,
                30.26821517944336
            ],
            "min" : [
                -6.353314399719238,
                -0.8538792729377747,
                -30.34036636352539
            ],
            "type" : "VEC3"
        },
        {
            "bufferView" : 1,
            "componentType" : 5126,
            "count" : 1749,
            "type" : "VEC3"
        },
        {
            "bufferView" : 2,
            "componentType" : 5126,
            "count" : 1749,
            "type" : "VEC2"
        },
        {
            "bufferView" : 3,
            "componentType" : 5123,
            "count" : 7785,
            "type" : "SCALAR"
        }
    ],
    "bufferViews" : [
        {
            "buffer" : 0,
            "byteLength" : 20988,
            "byteOffset" : 0
        },
        {
            "buffer" : 0,
            "byteLength" : 20988,
            "byteOffset" : 20988
        },
        {
            "buffer" : 0,
            "byteLength" : 13992,
            "byteOffset" : 41976
        },
        {
            "buffer" : 0,
            "byteLength" : 15570,
            "byteOffset" : 55968
        }
    ],
    "buffers" : [
        {
            "byteLength" : 71540,
            "uri" : "StingSword.bin"
        }
    ]
}
